<svg id="eypjvsgHItk1" xmlns="http://www.w3.org/2000/svg" xmlns:xlink="http://www.w3.org/1999/xlink" viewBox="0 0 300 300" shape-rendering="geometricPrecision" text-rendering="geometricPrecision" project-id="33ae6478a146413fa6fb3a1ed0a20836" export-id="baf400a19e1443b8ae2a9a42c5996884" cached="false"><path d="M79.92385,106.19469c0,2.85786.35799,24.69644,3.70447,24.69644c3.79483,0-1.19147-10.11491,2.46964-11.1134c5.08019-1.38551,9.22451,5.88373,13.58304,3.70447c5.29737-2.64869,14.06609-19.08616,7.40893-24.07903-35.26011-26.44508-53.93663,30.7815-32.72278,43.83618c15.70137,9.66238,44.72992,2.40672,52.47993-14.20045c2.75894-5.91201.57858-14.12279,3.08706-19.13974c2.77637-5.55274,30.51578-18.6383,37.04466-24.07903" transform="matrix(1.334613 0 0 1.418656-5.126265 81.119849)" fill="none" stroke="#3f5787" stroke-width="0.6"/><path d="M181.78797,126.95662c0,3.00156,2.47945,28.75032,5.39068,28.75032c1.11654,0-.51136-17.06174,8.38551-16.17205c4.95074.49507.34193,11.20905,5.98965,13.7762c7.79238,3.54199,5.91814-7.76271,11.38034-9.58344c7.29854-2.43285,15.77038-1.82111,23.35963-4.19276c4.73141-1.47856,7.3511-3.57211,11.38034-5.98965" transform="matrix(1.491469-.038669 0.043348 1.671941-176.391051-170.518395)" fill="none" stroke="#3f5787" stroke-width="0.6"/></svg>
